<?xml version="1.0" encoding="utf-8"?>
<!-- Generator: Adobe Illustrator 17.0.0, SVG Export Plug-In . SVG Version: 6.00 Build 0)  -->
<!DOCTYPE svg PUBLIC "-//W3C//DTD SVG 1.1//EN" "http://www.w3.org/Graphics/SVG/1.1/DTD/svg11.dtd">
<svg version="1.1" id="Camada_4" xmlns="http://www.w3.org/2000/svg" xmlns:xlink="http://www.w3.org/1999/xlink" x="0px" y="0px"
	 width="1280px" height="1280px" viewBox="0 0 1280 1280" enable-background="new 0 0 1280 1280" xml:space="preserve">
<g id="Logo">
	<path fill="#330033" d="M425.3,430.881c47.175,0,85.555-38.38,85.555-85.555s-38.38-85.555-85.555-85.555
		s-85.555,38.38-85.555,85.555S378.125,430.881,425.3,430.881z"/>
	<path fill="#330033" d="M846.332,430.881c47.175,0,85.555-38.38,85.555-85.555s-38.38-85.555-85.555-85.555
		s-85.554,38.38-85.554,85.555S799.157,430.881,846.332,430.881z"/>
	<path fill="#330033" d="M635.816,501.458c58.624,0,106.318-47.694,106.318-106.319S694.44,288.82,635.816,288.82
		c-58.625,0-106.319,47.694-106.319,106.319S577.192,501.458,635.816,501.458z"/>
	<path fill="#330033" d="M1132.128,586.562c-1.662-11.353-5.145-22.569-11.026-32.5c-2.928-4.953-6.412-9.563-10.367-13.617
		c-3.948-4.055-8.336-7.572-12.942-10.418c-4.593-2.883-9.395-5.082-14.15-6.771c-4.763-1.674-9.493-2.784-14.063-3.511
		c-9.157-1.437-17.641-1.291-25.221-0.498c-7.594,0.803-14.326,2.265-20.25,3.877c-5.864,1.638-10.943,3.401-15.281,5.09
		c0.783-16.702,1.217-32.549,1.376-47.387c0,0-13.249,3.133-39.457,7.365c-8.442-30.396-29.226-55.656-56.626-70.028
		c-17.787,16.566-41.623,26.718-67.789,26.718c-19.909,0-38.469-5.878-54.044-15.985c-24.312,18.808-40.769,47.279-43.607,79.658
		c-5.271,0.206-10.621,0.398-16.049,0.576c-7.175-6.995-15.103-13.222-23.654-18.542c-11.497,8.833-24.628,15.635-38.853,19.877
		c-9.839,0.101-19.869,0.157-30.126,0.157c-13.311,0-26.249-0.093-38.856-0.261c-14.086-4.249-27.091-11.016-38.491-19.774
		c-8.436,5.249-16.262,11.383-23.361,18.264c-5.539-0.199-11.003-0.411-16.374-0.639c-2.923-32.238-19.349-60.575-43.576-79.317
		c-15.575,10.107-34.135,15.985-54.044,15.985c-26.166,0-50.001-10.152-67.789-26.717c-27.002,14.164-47.586,38.898-56.258,68.704
		c-20.895-3.545-31.457-6.041-31.457-6.041c0.906,84.566,10.49,201.239,45.31,328.912C373.148,1022.557,640,1027.228,640,1027.228
		s252.4-4.428,319.645-200.447c6.707-1.632,13.262-3.805,19.62-6.356c12.087-4.856,23.511-11.079,34.329-18.15
		c21.623-14.197,40.673-31.823,57.112-51.059c16.401-19.291,30.219-40.289,40.866-62.207c5.309-10.965,9.838-22.158,13.369-33.521
		c3.548-11.352,6.105-22.876,7.434-34.423c0.171-1.443,0.296-2.888,0.44-4.332l0.168-2.264c0.054-0.748,0.116-1.542,0.142-2.158
		l0.104-1.967l0.026-0.491l0.022-0.692l0.029-1.082c0.049-1.439,0.065-2.881,0.056-4.322
		C1133.359,598.003,1132.954,592.251,1132.128,586.562z M526.786,663.366c-7.723-4.241-15.716-7.476-23.979-9.705
		c-8.266-2.228-17.291-3.345-27.079-3.345c-10.006,0-19.06,1.876-27.16,5.628c-8.103,3.752-14.982,9.191-20.635,16.312
		c-5.656,7.124-10.007,15.823-13.05,26.1c-3.046,10.277-4.567,21.996-4.567,35.153c0,27.624,5.6,48.447,16.801,62.477
		c11.2,14.028,27.622,21.043,49.264,21.043c9.135,0,17.887-1.061,26.263-3.182c8.373-2.12,16.419-5.082,24.142-8.89v27.404
		c-17.074,7.07-34.964,10.604-53.667,10.604c-30.125,0-53.26-8.998-69.409-26.997c-16.149-17.997-24.224-44.614-24.224-79.849
		c0-17.072,2.228-32.516,6.688-46.327c4.458-13.81,10.82-25.529,19.085-35.153c8.263-9.624,18.27-17.046,30.015-22.267
		c11.745-5.22,24.902-7.83,39.476-7.83c9.895,0,19.085,0.843,27.568,2.528c8.482,1.687,16.639,4.269,24.468,7.748V663.366z
		 M704.59,809.199c-4.135,7.613-9.896,13.946-17.291,19.004c-7.396,5.057-16.287,8.836-26.67,11.337
		c-10.387,2.5-21.833,3.752-34.338,3.752c-5.656,0-11.284-0.22-16.883-0.652c-5.603-0.437-10.985-0.979-16.149-1.632
		c-5.167-0.652-10.032-1.412-14.6-2.283c-4.567-0.869-8.702-1.795-12.397-2.773v-28.058c8.156,3.046,17.316,5.439,27.486,7.178
		c10.167,1.741,21.721,2.61,34.664,2.61c9.352,0,17.317-0.734,23.897-2.202c6.578-1.469,11.963-3.643,16.15-6.525
		c4.184-2.88,7.23-6.387,9.135-10.521c1.9-4.132,2.854-8.862,2.854-14.191c0-5.763-1.605-10.685-4.812-14.763
		c-3.209-4.078-7.422-7.721-12.641-10.93c-5.221-3.206-11.174-6.143-17.863-8.809c-6.688-2.663-13.513-5.408-20.471-8.237
		c-6.961-2.827-13.784-5.898-20.472-9.217c-6.688-3.315-12.642-7.23-17.862-11.745c-5.22-4.511-9.436-9.812-12.642-15.904
		c-3.209-6.089-4.812-13.32-4.812-21.695c0-7.284,1.521-14.462,4.567-21.532c3.043-7.067,7.774-13.348,14.192-18.841
		c6.415-5.49,14.653-9.922,24.713-13.294c10.058-3.37,22.047-5.057,35.969-5.057c3.588,0,7.477,0.163,11.664,0.49
		c4.184,0.326,8.426,0.79,12.723,1.386c4.295,0.599,8.537,1.28,12.725,2.039c4.184,0.762,8.074,1.578,11.662,2.447v26.1
		c-8.375-2.391-16.748-4.213-25.121-5.465c-8.375-1.249-16.475-1.876-24.305-1.876c-16.639,0-28.873,2.773-36.703,8.319
		c-7.83,5.546-11.745,12.996-11.745,22.348c0,5.766,1.603,10.713,4.812,14.845c3.207,4.134,7.422,7.83,12.642,11.092
		c5.22,3.263,11.174,6.228,17.862,8.891c6.688,2.666,13.51,5.411,20.471,8.237c6.959,2.83,13.785,5.929,20.473,9.299
		c6.688,3.372,12.643,7.368,17.861,11.989c5.221,4.623,9.434,10.032,12.643,16.23c3.207,6.199,4.812,13.539,4.812,22.021
		C710.789,792.724,708.723,801.588,704.59,809.199z M894.14,663.366c-7.723-4.241-15.716-7.476-23.979-9.705
		c-8.266-2.228-17.291-3.345-27.078-3.345c-10.007,0-19.06,1.876-27.16,5.628c-8.103,3.752-14.981,9.191-20.635,16.312
		c-5.656,7.124-10.007,15.823-13.05,26.1c-3.046,10.277-4.567,21.996-4.567,35.153c0,27.624,5.6,48.447,16.802,62.477
		c11.199,14.028,27.621,21.043,49.263,21.043c9.135,0,17.888-1.061,26.263-3.182c8.373-2.12,16.42-5.082,24.143-8.89v27.404
		c-17.074,7.07-34.964,10.604-53.667,10.604c-30.125,0-53.26-8.998-69.409-26.997c-16.149-17.997-24.224-44.614-24.224-79.849
		c0-17.072,2.228-32.516,6.688-46.327c4.458-13.81,10.819-25.529,19.086-35.153c8.263-9.624,18.27-17.046,30.015-22.267
		c11.744-5.22,24.901-7.83,39.476-7.83c9.895,0,19.085,0.843,27.567,2.528c8.482,1.687,16.639,4.269,24.469,7.748V663.366z
		 M1106.367,608.99l-0.006,0.491l-0.023,1.97c-0.002,0.699-0.028,1.221-0.047,1.79l-0.055,1.696
		c-0.073,1.196-0.125,2.405-0.219,3.616c-1.415,19.424-7.146,40.182-16,60.516c-8.873,20.359-20.883,40.402-35.411,58.969
		c-14.558,18.523-31.663,35.675-51.049,49.561c-9.689,6.917-19.948,13.046-30.641,17.855c-2.552,1.149-5.133,2.217-7.734,3.205
		c24.009-88.353,35.942-171.392,41.298-242.136c0.271-0.154,0.59-0.336,0.969-0.551c0.327-0.186,0.693-0.394,1.099-0.624
		c0.356-0.195,0.747-0.408,1.171-0.64c0.835-0.456,1.792-0.988,2.983-1.594c4.654-2.416,11.592-5.786,20.604-8.709
		c4.501-1.428,9.519-2.723,14.927-3.524c5.401-0.803,11.204-1.101,17.047-0.431c5.84,0.663,11.709,2.286,17.056,5.312
		c5.353,3.003,10.212,7.423,14.094,13.406c3.9,5.955,6.73,13.468,8.323,21.902c0.792,4.22,1.306,8.661,1.494,13.269
		c0.056,1.15,0.092,2.31,0.099,3.482l0.014,0.878l0.004,0.22C1106.363,609.027,1106.372,608.76,1106.367,608.99z"/>
</g>
</svg>
